
<svg width="16" height="16" viewBox="0 0 16 16" fill="none" xmlns="http://www.w3.org/2000/svg">
<path d="M4.00039 6.90287C4.00039 6.35738 4.00097 5.98858 4.02678 5.70523C4.05183 5.43019 4.09676 5.2954 4.15011 5.20356C4.24669 5.03728 4.38494 4.89904 4.55122 4.80245C4.64306 4.7491 4.77785 4.70417 5.05289 4.67912C5.33624 4.65331 5.70504 4.65273 6.25052 4.65273H9.08359C9.62908 4.65273 9.99788 4.65331 10.2812 4.67912C10.5563 4.70417 10.6911 4.7491 10.7829 4.80245C10.9492 4.89904 11.0874 5.03728 11.184 5.20356C11.2374 5.2954 11.2823 5.43019 11.3073 5.70523C11.3331 5.98858 11.3337 6.35738 11.3337 6.90287V8.8826C11.3337 9.42809 11.3331 9.79689 11.3073 10.0802C11.2823 10.3553 11.2374 10.4901 11.184 10.5819L11.7028 10.8833L11.184 10.5819C11.0874 10.7482 10.9492 10.8864 10.7829 10.983C10.6911 11.0364 10.5563 11.0813 10.2812 11.1063C9.99788 11.1322 9.62908 11.1327 9.08359 11.1327H6.25052C5.70504 11.1327 5.33624 11.1322 5.05289 11.1063C4.77785 11.0813 4.64306 11.0364 4.55122 10.983C4.38494 10.8864 4.24669 10.7482 4.15011 10.5819C4.09676 10.4901 4.05183 10.3553 4.02678 10.0802C4.00097 9.79689 4.00039 9.42809 4.00039 8.8826V6.90287Z" stroke="#7F8AA5" stroke-width="1.2"/>
<path d="M6.45996 14.2926V13.0859H8.87329V14.2926C8.87329 14.959 8.33305 15.4993 7.66663 15.4993C7.0002 15.4993 6.45996 14.959 6.45996 14.2926Z" fill="#7F8AA5" stroke="#7F8AA5"/>
<path d="M5.40828 2.20667H5.78648L5.88941 1.84275C6.10871 1.06738 6.82205 0.5 7.66661 0.5C8.51118 0.5 9.22452 1.06738 9.44382 1.84275L9.54675 2.20667H9.92495H12.0799C12.1573 2.20667 12.2199 2.26935 12.2199 2.34667C12.2199 2.42399 12.1573 2.48667 12.0799 2.48667H9.92495H9.54675L9.44382 2.85059C9.22452 3.62595 8.51118 4.19333 7.66661 4.19333C6.82205 4.19333 6.10871 3.62595 5.88941 2.85059L5.78648 2.48667H5.40828H3.25328C3.17596 2.48667 3.11328 2.42399 3.11328 2.34667C3.11328 2.26935 3.17596 2.20667 3.25328 2.20667H5.40828ZM7.66661 0.78C6.80137 0.78 6.09995 1.48142 6.09995 2.34667C6.09995 3.21191 6.80137 3.91333 7.66661 3.91333C8.53186 3.91333 9.23328 3.21191 9.23328 2.34667C9.23328 1.48142 8.53186 0.78 7.66661 0.78Z" stroke="#7F8AA5" stroke-linecap="round"/>
</svg>
