<svg xmlns="http://www.w3.org/2000/svg" width="22" height="20" fill="none"><path fill="#7F8AA5" stroke="#7F8AA5" stroke-width=".18" d="M20.77 7.836l-9.584-4.792a.417.417 0 00-.372 0L1.23 7.836a.417.417 0 000 .745l3.173 1.586v3.184c0 1.967 2.898 3.507 6.597 3.507 3.7 0 6.597-1.54 6.597-3.507v-3.184l1.107-.553v3.038a1.297 1.297 0 00-.14 2.396l-.884 2.336a.417.417 0 00.39.564h2.103a.417.417 0 00.39-.564l-.886-2.335c.437-.209.74-.655.74-1.17 0-.569-.369-1.053-.88-1.227V9.197l1.233-.616a.417.417 0 000-.745zm-5.586 7.328c-1.11.555-2.596.861-4.184.861-1.587 0-3.073-.306-4.184-.861-1.004-.502-1.58-1.163-1.58-1.813v-2.767l5.578 2.789a.417.417 0 00.372 0l5.578-2.79v2.768c0 .65-.576 1.31-1.58 1.813zm3.49 1.951l.447-1.182.448 1.182h-.896zm.91-3.236a.463.463 0 11-.465-.462h.004c.254 0 .46.208.46.462zm-.547-5.363c-.332.162-.332.166-1.211.597l-.207.112L11 12.535 2.348 8.207 11 3.883l8.652 4.325-.615.308z"/></svg>