<svg xmlns="http://www.w3.org/2000/svg" width="20" height="20" fill="none"><path fill="#7F8AA5" stroke="#7F8AA5" stroke-width=".3" d="M9.648 18.714c-3.91-.125-4.847-3.428-5.047-4.494a1.7 1.7 0 01-.951-.596c-.273-.371-.4-.827-.356-1.283a1.748 1.748 0 01.423-1.376c.093-.094.2-.173.316-.236a6.733 6.733 0 01-1.027-3.863c.452-3.191 3.058-3.502 3.875-3.52a3.818 3.818 0 011.373-1 4.902 4.902 0 013.112-.17c2.02.52 3.368 1.519 4.008 2.967.91 2.06.111 4.43-.347 5.493.175.056.336.148.473.268a1.712 1.712 0 01.484 1.438c.044.456-.083.912-.356 1.283-.239.3-.574.51-.95.596-.201 1.065-1.137 4.367-5.03 4.493zm-4.89-7.3a.591.591 0 00-.42.146 1.012 1.012 0 00-.177.766.434.434 0 01-.003.085c-.023.246.041.492.182.695a.987.987 0 00.694.324c.099.012.19.057.26.128.07.07.112.163.12.26.015.16.4 3.917 4.235 4.041 3.814-.124 4.2-3.881 4.215-4.041a.425.425 0 01.12-.26.435.435 0 01.26-.128.999.999 0 00.694-.324c.142-.204.206-.452.182-.698a.442.442 0 01-.003-.083 1.007 1.007 0 00-.196-.785.664.664 0 00-.47-.122.439.439 0 01-.427-.17.424.424 0 01-.03-.454c.015-.03 1.603-3.003.583-5.314-.529-1.194-1.682-2.028-3.43-2.478a4.02 4.02 0 00-2.545.128 2.91 2.91 0 00-1.168.902.428.428 0 01-.384.171c-.112-.009-2.766-.178-3.182 2.75 0 0-.12 2.328 1.247 3.74a.426.426 0 01.082.47.406.406 0 01-.41.253l-.03-.003z"/><path fill="#7F8AA5" stroke="#7F8AA5" stroke-width=".3" d="M14.648 11.286a.428.428 0 01-.292-.115.41.41 0 01-.13-.282c-.005-.107-.137-2.607-2.043-2.848a6.57 6.57 0 01-2.602-.198 6.484 6.484 0 01-2.307-1.194c-.54.397-1.781 1.603-1.542 4.176a.409.409 0 01-.107.287.425.425 0 01-.577.052.412.412 0 01-.157-.264c-.35-3.775 2.126-5.085 2.23-5.139a.43.43 0 01.489.068A5.677 5.677 0 009.7 7.004a5.76 5.76 0 002.402.213.483.483 0 01.117-.004c2.15.219 2.806 2.48 2.852 3.642a.409.409 0 01-.112.297.427.427 0 01-.293.132l-.018.002z"/></svg>