
<svg id="vector" xmlns="http://www.w3.org/2000/svg" width="20" height="20" viewBox="0 0 30 26"><path fill="#898F9D" d="M21.3545,0.6001C21.0959,0.5998 20.847,0.6991 20.6595,0.8772C20.4728,1.0545 20.3612,1.2966 20.3474,1.5536L19.6129,12.5697H15.1922L15.1922,10.9039L15.1922,10.9007C15.1894,10.5516 15.0915,10.2099 14.9089,9.9123C14.7263,9.6148 14.466,9.3727 14.1561,9.2121C13.8451,9.0508 13.4963,8.9764 13.1466,8.9965C12.7968,9.0167 12.4589,9.1307 12.1684,9.3266L8.9036,11.6477L8.9036,10.9039L8.9036,10.9007C8.9008,10.5516 8.8029,10.2099 8.6203,9.9123C8.4377,9.6148 8.1774,9.3727 7.8675,9.2121C7.5565,9.0508 7.2077,8.9764 6.858,8.9965C6.5082,9.0167 6.1703,9.1307 5.8798,9.3267L1.8031,12.2169C1.4267,12.4781 1.1203,12.8276 0.9105,13.2349C0.7008,13.6419 0.5941,14.0942 0.5998,14.5521V24.3925C0.5998,24.6597 0.706,24.916 0.8949,25.105C1.0839,25.2939 1.3402,25.4001 1.6074,25.4001L28.3416,25.4003L28.3542,25.3999C28.4948,25.3955 28.633,25.3625 28.7604,25.303C28.8834,25.2457 28.9938,25.1648 29.0856,25.065C29.1871,24.9641 29.2636,24.8407 29.3089,24.7048C29.3535,24.571 29.3666,24.4289 29.3473,24.2894L27.8903,1.5517L27.8892,1.5396C27.8655,1.2901 27.7524,1.0576 27.5707,0.8849C27.389,0.7123 27.151,0.6113 26.9006,0.6005L26.892,0.6001H21.3545ZM28.9496,24.3317L29.3484,24.3062L29.3473,24.2894L29.344,24.2673L28.9496,24.3317C28.9496,24.3317 28.9496,24.3317 28.9496,24.3317ZM28.7975,24.7876L29.0956,25.0539L29.0856,25.065L29.0744,25.0759L28.7975,24.7876C28.7975,24.7876 28.7975,24.7876 28.7975,24.7876ZM0.5998,14.5521V14.5495H0.9998L0.5999,14.5549L0.5998,14.5521ZM1.8031,12.2169L1.8049,12.2156L2.0327,12.5444L1.8014,12.2181L1.8031,12.2169ZM20.3474,1.5536L20.3475,1.5507L20.7467,1.5773L20.3472,1.5573L20.3474,1.5536ZM22.1137,5.2786L22.2773,2.6153H25.93L26.0935,5.2786H22.1137ZM20.9304,23.3849L21.9722,7.2938H26.235L27.2769,23.3849H20.9304ZM2.9571,13.8773L6.8884,11.0902V13.5704C6.8826,13.7602 6.9322,13.9478 7.0314,14.1099C7.1284,14.2687 7.2686,14.3963 7.4354,14.478C7.592,14.5671 7.7708,14.6098 7.951,14.6008C8.1364,14.5915 8.3149,14.5279 8.4645,14.418L13.177,11.0898V13.5679C13.1715,13.7009 13.1932,13.8336 13.2408,13.9579C13.2899,14.0861 13.3654,14.2025 13.4624,14.2995C13.5595,14.3966 13.6758,14.4721 13.804,14.5212C13.9284,14.5688 14.0611,14.5904 14.194,14.5849H19.4989L18.9141,23.3849H15.8302V21.3849C15.8302,20.5537 15.5,19.7565 14.9122,19.1687C14.3245,18.5809 13.5273,18.2507 12.696,18.2507H8.8682C8.037,18.2507 7.2398,18.5809 6.652,19.1687C6.0642,19.7565 5.734,20.5537 5.734,21.3849V23.3849H2.615L2.6151,14.5495L2.6149,14.5413C2.6123,14.4109 2.6422,14.2819 2.7019,14.166C2.7616,14.05 2.8494,13.9509 2.9571,13.8773ZM8.0769,20.5937C8.2868,20.3838 8.5714,20.2659 8.8682,20.2659H12.696C12.9928,20.2659 13.2774,20.3838 13.4873,20.5937C13.6971,20.8035 13.815,21.0881 13.815,21.3849V23.3849H7.7492V21.3849C7.7492,21.0881 7.8671,20.8035 8.0769,20.5937Z" fill-rule="evenodd" id="path_0"/></svg>